<svg width="1600" height="1066"><rect id="-Portugal-0" x="0" y="0" width="11.428571428571429" height="1066" style="fill: #006600;"></rect><rect id="-Portugal-1" x="11.428571428571429" y="0" width="11.428571428571429" height="1066" style="fill: #006600;"></rect><rect id="-Portugal-2" x="22.857142857142858" y="0" width="11.428571428571429" height="1066" style="fill: #FF0000;"></rect><rect id="-Portugal-3" x="34.285714285714285" y="0" width="11.428571428571429" height="1066" style="fill: #FF0000;"></rect><rect id="-Portugal-4" x="45.714285714285715" y="0" width="11.428571428571429" height="1066" style="fill: #FF0000;"></rect><rect id="-Spain-0" x="57.142857142857146" y="0" width="14.285714285714286" height="1066" style="fill: #AA151B;"></rect><rect id="-Spain-1" x="71.42857142857143" y="0" width="14.285714285714286" height="1066" style="fill: #F1BF00;"></rect><rect id="-Spain-2" x="85.71428571428572" y="0" width="14.285714285714286" height="1066" style="fill: #F1BF00;"></rect><rect id="-Spain-3" x="100" y="0" width="14.285714285714286" height="1066" style="fill: #AA151B;"></rect><rect id="-United Kingdom-0" x="114.28571428571429" y="0" width="4.761904761904762" height="1066" style="fill: #003399;"></rect><rect id="-United Kingdom-1" x="119.04761904761905" y="0" width="4.761904761904762" height="1066" style="fill: #003399;"></rect><rect id="-United Kingdom-2" x="123.80952380952381" y="0" width="4.761904761904762" height="1066" style="fill: #003399;"></rect><rect id="-United Kingdom-3" x="128.57142857142858" y="0" width="4.761904761904762" height="1066" style="fill: #003399;"></rect><rect id="-United Kingdom-4" x="133.33333333333334" y="0" width="4.761904761904762" height="1066" style="fill: #FFFFFF;"></rect><rect id="-United Kingdom-5" x="138.0952380952381" y="0" width="4.761904761904762" height="1066" style="fill: #CC0000;"></rect><rect id="-United Kingdom-6" x="142.85714285714286" y="0" width="4.761904761904762" height="1066" style="fill: #CC0000;"></rect><rect id="-United Kingdom-7" x="147.61904761904762" y="0" width="4.761904761904762" height="1066" style="fill: #FFFFFF;"></rect><rect id="-United Kingdom-8" x="152.38095238095238" y="0" width="4.761904761904762" height="1066" style="fill: #003399;"></rect><rect id="-United Kingdom-9" x="157.14285714285714" y="0" width="4.761904761904762" height="1066" style="fill: #003399;"></rect><rect id="-United Kingdom-10" x="161.90476190476193" y="0" width="4.761904761904762" height="1066" style="fill: #003399;"></rect><rect id="-United Kingdom-11" x="166.66666666666669" y="0" width="4.761904761904762" height="1066" style="fill: #003399;"></rect><rect id="-Ireland-0" x="171.42857142857144" y="0" width="19.047619047619047" height="1066" style="fill: #169B62;"></rect><rect id="-Ireland-1" x="190.47619047619048" y="0" width="19.047619047619047" height="1066" style="fill: #FFFFFF;"></rect><rect id="-Ireland-2" x="209.52380952380955" y="0" width="19.047619047619047" height="1066" style="fill: #FF883E;"></rect><rect id="-France-0" x="228.57142857142858" y="0" width="19.047619047619047" height="1066" style="fill: #002395;"></rect><rect id="-France-1" x="247.61904761904762" y="0" width="19.047619047619047" height="1066" style="fill: #FFFFFF;"></rect><rect id="-France-2" x="266.6666666666667" y="0" width="19.047619047619047" height="1066" style="fill: #ED2939;"></rect><rect id="-Belgium-0" x="285.7142857142857" y="0" width="19.047619047619047" height="1066" style="fill: #000000;"></rect><rect id="-Belgium-1" x="304.76190476190476" y="0" width="19.047619047619047" height="1066" style="fill: #FFE936;"></rect><rect id="-Belgium-2" x="323.8095238095238" y="0" width="19.047619047619047" height="1066" style="fill: #FF0F21;"></rect><rect id="-Netherlands-0" x="342.8571428571429" y="0" width="19.047619047619047" height="1066" style="fill: #AE1C28;"></rect><rect id="-Netherlands-1" x="361.9047619047619" y="0" width="19.047619047619047" height="1066" style="fill: #FFFFFF;"></rect><rect id="-Netherlands-2" x="380.95238095238096" y="0" width="19.047619047619047" height="1066" style="fill: #21468B;"></rect><rect id="-Luxembourg-0" x="400" y="0" width="19.047619047619047" height="1066" style="fill: #ED2939;"></rect><rect id="-Luxembourg-1" x="419.04761904761904" y="0" width="19.047619047619047" height="1066" style="fill: #fff;"></rect><rect id="-Luxembourg-2" x="438.0952380952381" y="0" width="19.047619047619047" height="1066" style="fill: #00A1DE;"></rect><rect id="-Germany-0" x="457.14285714285717" y="0" width="19.047619047619047" height="1066" style="fill: #DD0000;"></rect><rect id="-Germany-1" x="476.1904761904762" y="0" width="19.047619047619047" height="1066" style="fill: #000000;"></rect><rect id="-Germany-2" x="495.23809523809524" y="0" width="19.047619047619047" height="1066" style="fill: #FFCE00;"></rect><rect id="-Italy-0" x="514.2857142857143" y="0" width="19.047619047619047" height="1066" style="fill: #009246;"></rect><rect id="-Italy-1" x="533.3333333333334" y="0" width="19.047619047619047" height="1066" style="fill: #fff;"></rect><rect id="-Italy-2" x="552.3809523809524" y="0" width="19.047619047619047" height="1066" style="fill: #CE2B37;"></rect><rect id="-Denmark-0" x="571.4285714285714" y="0" width="6.34920634920635" height="1066" style="fill: #C60C30;"></rect><rect id="-Denmark-1" x="577.7777777777778" y="0" width="6.34920634920635" height="1066" style="fill: #C60C30;"></rect><rect id="-Denmark-2" x="584.1269841269841" y="0" width="6.34920634920635" height="1066" style="fill: #C60C30;"></rect><rect id="-Denmark-3" x="590.4761904761905" y="0" width="6.34920634920635" height="1066" style="fill: #FFFFFF;"></rect><rect id="-Denmark-4" x="596.8253968253969" y="0" width="6.34920634920635" height="1066" style="fill: #C60C30;"></rect><rect id="-Denmark-5" x="603.1746031746031" y="0" width="6.34920634920635" height="1066" style="fill: #C60C30;"></rect><rect id="-Denmark-6" x="609.5238095238095" y="0" width="6.34920634920635" height="1066" style="fill: #C60C30;"></rect><rect id="-Denmark-7" x="615.8730158730159" y="0" width="6.34920634920635" height="1066" style="fill: #C60C30;"></rect><rect id="-Denmark-8" x="622.2222222222223" y="0" width="6.34920634920635" height="1066" style="fill: #C60C30;"></rect><rect id="-Austria-0" x="628.5714285714286" y="0" width="19.047619047619047" height="1066" style="fill: #ED2939;"></rect><rect id="-Austria-1" x="647.6190476190476" y="0" width="19.047619047619047" height="1066" style="fill: #fff;"></rect><rect id="-Austria-2" x="666.6666666666666" y="0" width="19.047619047619047" height="1066" style="fill: #ED2939;"></rect><rect id="-Sweden-0" x="685.7142857142858" y="0" width="3.5714285714285716" height="1066" style="fill: #006AA7;"></rect><rect id="-Sweden-1" x="689.2857142857143" y="0" width="3.5714285714285716" height="1066" style="fill: #006AA7;"></rect><rect id="-Sweden-2" x="692.8571428571429" y="0" width="3.5714285714285716" height="1066" style="fill: #006AA7;"></rect><rect id="-Sweden-3" x="696.4285714285714" y="0" width="3.5714285714285716" height="1066" style="fill: #006AA7;"></rect><rect id="-Sweden-4" x="700.0000000000001" y="0" width="3.5714285714285716" height="1066" style="fill: #006AA7;"></rect><rect id="-Sweden-5" x="703.5714285714287" y="0" width="3.5714285714285716" height="1066" style="fill: #FECC00;"></rect><rect id="-Sweden-6" x="707.1428571428572" y="0" width="3.5714285714285716" height="1066" style="fill: #FECC00;"></rect><rect id="-Sweden-7" x="710.7142857142858" y="0" width="3.5714285714285716" height="1066" style="fill: #006AA7;"></rect><rect id="-Sweden-8" x="714.2857142857143" y="0" width="3.5714285714285716" height="1066" style="fill: #006AA7;"></rect><rect id="-Sweden-9" x="717.8571428571429" y="0" width="3.5714285714285716" height="1066" style="fill: #006AA7;"></rect><rect id="-Sweden-10" x="721.4285714285714" y="0" width="3.5714285714285716" height="1066" style="fill: #006AA7;"></rect><rect id="-Sweden-11" x="725.0000000000001" y="0" width="3.5714285714285716" height="1066" style="fill: #006AA7;"></rect><rect id="-Sweden-12" x="728.5714285714287" y="0" width="3.5714285714285716" height="1066" style="fill: #006AA7;"></rect><rect id="-Sweden-13" x="732.1428571428572" y="0" width="3.5714285714285716" height="1066" style="fill: #006AA7;"></rect><rect id="-Sweden-14" x="735.7142857142858" y="0" width="3.5714285714285716" height="1066" style="fill: #006AA7;"></rect><rect id="-Sweden-15" x="739.2857142857143" y="0" width="3.5714285714285716" height="1066" style="fill: #006AA7;"></rect><rect id="-Czech Republic-0" x="742.8571428571429" y="0" width="19.047619047619047" height="1066" style="fill: #FFFFFF;"></rect><rect id="-Czech Republic-1" x="761.9047619047619" y="0" width="19.047619047619047" height="1066" style="fill: #11457E;"></rect><rect id="-Czech Republic-2" x="780.952380952381" y="0" width="19.047619047619047" height="1066" style="fill: #D7141A;"></rect><rect id="-Slovenia-0" x="800" y="0" width="19.047619047619047" height="1066" style="fill: #fff;"></rect><rect id="-Slovenia-1" x="819.047619047619" y="0" width="19.047619047619047" height="1066" style="fill: #005DA4;"></rect><rect id="-Slovenia-2" x="838.0952380952381" y="0" width="19.047619047619047" height="1066" style="fill: #ED1C24;"></rect><rect id="-Poland-0" x="857.1428571428572" y="0" width="28.571428571428573" height="1066" style="fill: #fff;"></rect><rect id="-Poland-1" x="885.7142857142858" y="0" width="28.571428571428573" height="1066" style="fill: #DC143C;"></rect><rect id="-Croatia-0" x="914.2857142857143" y="0" width="19.047619047619047" height="1066" style="fill: #FF0000;"></rect><rect id="-Croatia-1" x="933.3333333333334" y="0" width="19.047619047619047" height="1066" style="fill: #FFFFFF;"></rect><rect id="-Croatia-2" x="952.3809523809524" y="0" width="19.047619047619047" height="1066" style="fill: #171796;"></rect><rect id="-Malta-0" x="971.4285714285714" y="0" width="28.571428571428573" height="1066" style="fill: #fff;"></rect><rect id="-Malta-1" x="1000" y="0" width="28.571428571428573" height="1066" style="fill: #CF142B;"></rect><rect id="-Finland-0" x="1028.5714285714287" y="0" width="5.194805194805195" height="1066" style="fill: #fff;"></rect><rect id="-Finland-1" x="1033.7662337662339" y="0" width="5.194805194805195" height="1066" style="fill: #fff;"></rect><rect id="-Finland-2" x="1038.961038961039" y="0" width="5.194805194805195" height="1066" style="fill: #fff;"></rect><rect id="-Finland-3" x="1044.1558441558443" y="0" width="5.194805194805195" height="1066" style="fill: #fff;"></rect><rect id="-Finland-4" x="1049.3506493506495" y="0" width="5.194805194805195" height="1066" style="fill: #002f6c;"></rect><rect id="-Finland-5" x="1054.5454545454547" y="0" width="5.194805194805195" height="1066" style="fill: #002f6c;"></rect><rect id="-Finland-6" x="1059.74025974026" y="0" width="5.194805194805195" height="1066" style="fill: #002f6c;"></rect><rect id="-Finland-7" x="1064.935064935065" y="0" width="5.194805194805195" height="1066" style="fill: #fff;"></rect><rect id="-Finland-8" x="1070.1298701298701" y="0" width="5.194805194805195" height="1066" style="fill: #fff;"></rect><rect id="-Finland-9" x="1075.3246753246754" y="0" width="5.194805194805195" height="1066" style="fill: #fff;"></rect><rect id="-Finland-10" x="1080.5194805194806" y="0" width="5.194805194805195" height="1066" style="fill: #fff;"></rect><rect id="-Hungary-0" x="1085.7142857142858" y="0" width="19.047619047619047" height="1066" style="fill: #CD2A3E;"></rect><rect id="-Hungary-1" x="1104.7619047619048" y="0" width="19.047619047619047" height="1066" style="fill: #fff;"></rect><rect id="-Hungary-2" x="1123.8095238095239" y="0" width="19.047619047619047" height="1066" style="fill: #436F4D;"></rect><rect id="-Slovakia-0" x="1142.857142857143" y="0" width="19.047619047619047" height="1066" style="fill: #fff;"></rect><rect id="-Slovakia-1" x="1161.904761904762" y="0" width="19.047619047619047" height="1066" style="fill: #0B4EA2;"></rect><rect id="-Slovakia-2" x="1180.952380952381" y="0" width="19.047619047619047" height="1066" style="fill: #EE1C25;"></rect><rect id="-Latvia-0" x="1200" y="0" width="11.428571428571429" height="1066" style="fill: #9E1B34;"></rect><rect id="-Latvia-1" x="1211.4285714285713" y="0" width="11.428571428571429" height="1066" style="fill: #9E1B34;"></rect><rect id="-Latvia-2" x="1222.857142857143" y="0" width="11.428571428571429" height="1066" style="fill: #fff;"></rect><rect id="-Latvia-3" x="1234.2857142857142" y="0" width="11.428571428571429" height="1066" style="fill: #9E1B34;"></rect><rect id="-Latvia-4" x="1245.7142857142858" y="0" width="11.428571428571429" height="1066" style="fill: #9E1B34;"></rect><rect id="-Lithuania-0" x="1257.142857142857" y="0" width="19.047619047619047" height="1066" style="fill: #fdb913;"></rect><rect id="-Lithuania-1" x="1276.1904761904761" y="0" width="19.047619047619047" height="1066" style="fill: #006a44;"></rect><rect id="-Lithuania-2" x="1295.2380952380952" y="0" width="19.047619047619047" height="1066" style="fill: #c1272d;"></rect><rect id="-Estonia-0" x="1314.2857142857144" y="0" width="19.047619047619047" height="1066" style="fill: #0072CE;"></rect><rect id="-Estonia-1" x="1333.3333333333335" y="0" width="19.047619047619047" height="1066" style="fill: #000000;"></rect><rect id="-Estonia-2" x="1352.3809523809525" y="0" width="19.047619047619047" height="1066" style="fill: #fff;"></rect><rect id="-Romania-0" x="1371.4285714285716" y="0" width="19.047619047619047" height="1066" style="fill: #002B7F;"></rect><rect id="-Romania-1" x="1390.4761904761906" y="0" width="19.047619047619047" height="1066" style="fill: #FCD116;"></rect><rect id="-Romania-2" x="1409.5238095238096" y="0" width="19.047619047619047" height="1066" style="fill: #CE1126;"></rect><rect id="-Greece-0" x="1428.5714285714287" y="0" width="6.34920634920635" height="1066" style="fill: #0D5EAF;"></rect><rect id="-Greece-1" x="1434.920634920635" y="0" width="6.34920634920635" height="1066" style="fill: #0D5EAF;"></rect><rect id="-Greece-2" x="1441.2698412698414" y="0" width="6.34920634920635" height="1066" style="fill: #FFFFFF;"></rect><rect id="-Greece-3" x="1447.6190476190477" y="0" width="6.34920634920635" height="1066" style="fill: #0D5EAF;"></rect><rect id="-Greece-4" x="1453.968253968254" y="0" width="6.34920634920635" height="1066" style="fill: #0D5EAF;"></rect><rect id="-Greece-5" x="1460.3174603174605" y="0" width="6.34920634920635" height="1066" style="fill: #FFFFFF;"></rect><rect id="-Greece-6" x="1466.6666666666667" y="0" width="6.34920634920635" height="1066" style="fill: #0D5EAF;"></rect><rect id="-Greece-7" x="1473.015873015873" y="0" width="6.34920634920635" height="1066" style="fill: #FFFFFF;"></rect><rect id="-Greece-8" x="1479.3650793650795" y="0" width="6.34920634920635" height="1066" style="fill: #0D5EAF;"></rect><rect id="-Bulgaria-0" x="1485.7142857142858" y="0" width="19.047619047619047" height="1066" style="fill: #fff;"></rect><rect id="-Bulgaria-1" x="1504.7619047619048" y="0" width="19.047619047619047" height="1066" style="fill: #00966E;"></rect><rect id="-Bulgaria-2" x="1523.8095238095239" y="0" width="19.047619047619047" height="1066" style="fill: #D62612;"></rect><rect id="-Cyprus-0" x="1542.857142857143" y="0" width="19.047619047619047" height="1066" style="fill: #CC6600;"></rect><rect id="-Cyprus-1" x="1561.904761904762" y="0" width="19.047619047619047" height="1066" style="fill: #fff;"></rect><rect id="-Cyprus-2" x="1580.952380952381" y="0" width="19.047619047619047" height="1066" style="fill: #006651;"></rect></svg>