<svg><rect id="-County Kerry-0" x="0" y="0" width="15.625" height="500" style="fill: #009900;"></rect><rect id="-County Kerry-1" x="15.625" y="0" width="15.625" height="500" style="fill: #ffff00;"></rect><rect id="-County Galway-0" x="31.25" y="0" width="15.625" height="500" style="fill: #990000;"></rect><rect id="-County Galway-1" x="46.875" y="0" width="15.625" height="500" style="fill: #ffffff;"></rect><rect id="-County Mayo-0" x="62.5" y="0" width="15.625" height="500" style="fill: #009900;"></rect><rect id="-County Mayo-1" x="78.125" y="0" width="15.625" height="500" style="fill: #ff0000;"></rect><rect id="-County Cork-0" x="93.75" y="0" width="15.625" height="500" style="fill: #ff0000;"></rect><rect id="-County Cork-1" x="109.375" y="0" width="15.625" height="500" style="fill: #ffffff;"></rect><rect id="-County Clare-0" x="125" y="0" width="15.625" height="500" style="fill: #ffff00;"></rect><rect id="-County Clare-1" x="140.625" y="0" width="15.625" height="500" style="fill: #0000ff;"></rect><rect id="-County Limerick-0" x="156.25" y="0" width="15.625" height="500" style="fill: #009900;"></rect><rect id="-County Limerick-1" x="171.875" y="0" width="15.625" height="500" style="fill: #ffffff;"></rect><rect id="-County Sligo-0" x="187.5" y="0" width="15.625" height="500" style="fill: #000000;"></rect><rect id="-County Sligo-1" x="203.125" y="0" width="15.625" height="500" style="fill: #ffffff;"></rect><rect id="-County Donegal-0" x="218.75" y="0" width="15.625" height="500" style="fill: #ffff00;"></rect><rect id="-County Donegal-1" x="234.375" y="0" width="15.625" height="500" style="fill: #009900;"></rect><rect id="-County Roscommon-0" x="250" y="0" width="15.625" height="500" style="fill: #0000ff;"></rect><rect id="-County Roscommon-1" x="265.625" y="0" width="15.625" height="500" style="fill: #ffff00;"></rect><rect id="-County Tipperary-0" x="281.25" y="0" width="15.625" height="500" style="fill: #0000ff;"></rect><rect id="-County Tipperary-1" x="296.875" y="0" width="15.625" height="500" style="fill: #ffff00;"></rect><rect id="-County Leitrim-0" x="312.5" y="0" width="15.625" height="500" style="fill: #009900;"></rect><rect id="-County Leitrim-1" x="328.125" y="0" width="15.625" height="500" style="fill: #ffff00;"></rect><rect id="-County Fermanagh-0" x="343.75" y="0" width="15.625" height="500" style="fill: #009900;"></rect><rect id="-County Fermanagh-1" x="359.375" y="0" width="15.625" height="500" style="fill: #ffffff;"></rect><rect id="-County Waterford-0" x="375" y="0" width="15.625" height="500" style="fill: #ffffff;"></rect><rect id="-County Waterford-1" x="390.625" y="0" width="15.625" height="500" style="fill: #0000ff;"></rect><rect id="-County Offaly-0" x="406.25" y="0" width="10.416666666666666" height="500" style="fill: #009900;"></rect><rect id="-County Offaly-1" x="416.6666666666667" y="0" width="10.416666666666666" height="500" style="fill: #ffffff;"></rect><rect id="-County Offaly-2" x="427.0833333333333" y="0" width="10.416666666666666" height="500" style="fill: #fecd06;"></rect><rect id="-County Cavan-0" x="437.5" y="0" width="15.625" height="500" style="fill: #0000ff;"></rect><rect id="-County Cavan-1" x="453.125" y="0" width="15.625" height="500" style="fill: #ffffff;"></rect><rect id="-County Longford-0" x="468.75" y="0" width="15.625" height="500" style="fill: #0000ff;"></rect><rect id="-County Longford-1" x="484.375" y="0" width="15.625" height="500" style="fill: #ffff00;"></rect><rect id="-County Westmeath-0" x="500" y="0" width="15.625" height="500" style="fill: #990000;"></rect><rect id="-County Westmeath-1" x="515.625" y="0" width="15.625" height="500" style="fill: #ffffff;"></rect><rect id="-County Tyrone-0" x="531.25" y="0" width="15.625" height="500" style="fill: #ffffff;"></rect><rect id="-County Tyrone-1" x="546.875" y="0" width="15.625" height="500" style="fill: #ff0000;"></rect><rect id="-County Laois-0" x="562.5" y="0" width="15.625" height="500" style="fill: #0000ff;"></rect><rect id="-County Laois-1" x="578.125" y="0" width="15.625" height="500" style="fill: #ffffff;"></rect><rect id="-County Kilkenny-0" x="593.75" y="0" width="15.625" height="500" style="fill: #000000;"></rect><rect id="-County Kilkenny-1" x="609.375" y="0" width="15.625" height="500" style="fill: #ffc125;"></rect><rect id="-County Londonderry-0" x="625" y="0" width="15.625" height="500" style="fill: #ff0000;"></rect><rect id="-County Londonderry-1" x="640.625" y="0" width="15.625" height="500" style="fill: #ffffff;"></rect><rect id="-County Meath-0" x="656.25" y="0" width="15.625" height="500" style="fill: #009900;"></rect><rect id="-County Meath-1" x="671.875" y="0" width="15.625" height="500" style="fill: #ffff00;"></rect><rect id="-County Monaghan-0" x="687.5" y="0" width="15.625" height="500" style="fill: #ffffff;"></rect><rect id="-County Monaghan-1" x="703.125" y="0" width="15.625" height="500" style="fill: #0000ff;"></rect><rect id="-County Kildare-0" x="718.75" y="0" width="31.25" height="500" style="fill: #ffffff;"></rect><rect id="-County Carlow-0" x="750" y="0" width="10.416666666666666" height="500" style="fill: #009900;"></rect><rect id="-County Carlow-1" x="760.4166666666666" y="0" width="10.416666666666666" height="500" style="fill: #ff0000;"></rect><rect id="-County Carlow-2" x="770.8333333333334" y="0" width="10.416666666666666" height="500" style="fill: #ffff00;"></rect><rect id="-County Wexford-0" x="781.25" y="0" width="15.625" height="500" style="fill: #660099;"></rect><rect id="-County Wexford-1" x="796.875" y="0" width="15.625" height="500" style="fill: #ffff00;"></rect><rect id="-County Armagh-0" x="812.5" y="0" width="15.625" height="500" style="fill: #ff8800;"></rect><rect id="-County Armagh-1" x="828.125" y="0" width="15.625" height="500" style="fill: #ffffff;"></rect><rect id="-County Wicklow-0" x="843.75" y="0" width="15.625" height="500" style="fill: #0000ff;"></rect><rect id="-County Wicklow-1" x="859.375" y="0" width="15.625" height="500" style="fill: #ffff00;"></rect><rect id="-County Louth-0" x="875" y="0" width="15.625" height="500" style="fill: #ff0000;"></rect><rect id="-County Louth-1" x="890.625" y="0" width="15.625" height="500" style="fill: #ffffff;"></rect><rect id="-County Antrim-0" x="906.25" y="0" width="15.625" height="500" style="fill: #ffff00;"></rect><rect id="-County Antrim-1" x="921.875" y="0" width="15.625" height="500" style="fill: #ffffff;"></rect><rect id="-County Dublin-0" x="937.5" y="0" width="15.625" height="500" style="fill: #88b8fd;"></rect><rect id="-County Dublin-1" x="953.125" y="0" width="15.625" height="500" style="fill: #000080;"></rect><rect id="-County Down-0" x="968.75" y="0" width="15.625" height="500" style="fill: #ff0000;"></rect><rect id="-County Down-1" x="984.375" y="0" width="15.625" height="500" style="fill: #000000;"></rect></svg>